<svg width="25" height="24" viewBox="0 0 25 24" fill="none" xmlns="http://www.w3.org/2000/svg">
<g clip-path="url(#clip0_306_20800)">
<path d="M7.19043 18C6.09043 18 5.20043 18.9 5.20043 20C5.20043 21.1 6.09043 22 7.19043 22C8.29043 22 9.19043 21.1 9.19043 20C9.19043 18.9 8.29043 18 7.19043 18ZM1.19043 2V4H3.19043L6.79043 11.59L5.44043 14.04C5.28043 14.32 5.19043 14.65 5.19043 15C5.19043 16.1 6.09043 17 7.19043 17H19.1904V15H7.61043C7.47043 15 7.36043 14.89 7.36043 14.75L7.39043 14.63L8.29043 13H15.7404C16.4904 13 17.1504 12.59 17.4904 11.97L21.0704 5.48C21.1504 5.34 21.1904 5.17 21.1904 5C21.1904 4.45 20.7404 4 20.1904 4H5.40043L4.46043 2H1.19043ZM17.1904 18C16.0904 18 15.2004 18.9 15.2004 20C15.2004 21.1 16.0904 22 17.1904 22C18.2904 22 19.1904 21.1 19.1904 20C19.1904 18.9 18.2904 18 17.1904 18Z" fill="white" fill-opacity="0.65"/>
</g>
<defs>
<clipPath id="clip0_306_20800">
<rect width="24" height="24" fill="white" transform="translate(0.19043)"/>
</clipPath>
</defs>
</svg>
